Coordinates
version=1
nRows=32
nColumns=12
inDegrees=yes

Units are S.I. units (second, meters, Newtons, ...)
Angles are in degrees

endheader
time	SC_y	SC_z	SC_x	AC_y	AC_z	AC_x	GH_y	GH_z	GH_yy	EL_x	PS_y
       0.0              -22.82         0.8893          53.28          38.14          2.225          19.47          176.0          82.26          86.87          95.84          46.37
   0.03366              -22.82         0.8911          53.29          38.14          2.224          19.47          175.9          82.25          86.84          95.84          46.38
   0.06731              -22.83          0.893          53.29          38.13          2.223          19.46          175.9          82.24          86.81          95.84          46.38
     0.101              -22.83          0.895           53.3          38.13          2.222          19.46          175.8          82.23          86.78          95.83          46.38
    0.1346              -22.83         0.8971           53.3          38.13           2.22          19.45          175.7          82.22          86.74          95.82          46.38
    0.1683              -22.83         0.8994          53.31          38.13          2.219          19.44          175.7          82.21           86.7          95.82          46.38
    0.2019              -22.83         0.9018          53.31          38.13          2.217          19.44          175.6          82.19          86.66          95.81          46.38
    0.2356              -22.84         0.9044          53.32          38.13          2.215          19.43          175.5          82.18          86.62          95.81          46.38
    0.2692              -22.84         0.9072          53.33          38.13          2.214          19.42          175.5          82.16          86.58           95.8          46.38
    0.3029              -22.84         0.9102          53.33          38.13          2.212          19.41          175.4          82.15          86.53          95.79          46.39
    0.3366              -22.85         0.9134          53.34          38.13           2.21           19.4          175.3          82.13          86.48          95.78          46.39
    0.3702              -22.85         0.9168          53.35          38.13          2.208          19.39          175.2          82.11          86.42          95.78          46.39
    0.4039              -22.85         0.9206          53.36          38.13          2.205          19.38          175.1          82.09          86.36          95.77          46.39
    0.4375              -22.86         0.9246          53.37          38.12          2.203          19.37          175.0          82.07          86.29          95.76          46.39
    0.4712              -22.86         0.9289          53.38          38.12            2.2          19.36          174.8          82.04          86.22          95.75           46.4
    0.5048              -22.86         0.9336          53.39          38.12          2.197          19.34          174.7          82.01          86.15          95.73           46.4
    0.5385              -22.87         0.9388           53.4          38.12          2.193          19.33          174.6          81.99          86.06          95.72           46.4
    0.5721              -22.87         0.9443          53.41          38.12           2.19          19.31          174.4          81.96          85.97          95.71          46.41
    0.6058              -22.88         0.9504          53.43          38.12          2.186          19.29          174.2          81.92          85.87          95.69          46.41
    0.6394              -22.89         0.9571          53.45          38.11          2.182          19.27          174.1          81.88          85.76          95.68          46.41
    0.6731              -22.89         0.9644          53.46          38.11          2.177          19.25          173.9          81.84          85.64          95.66          46.42
    0.7068               -22.9         0.9725          53.48          38.11          2.172          19.23          173.6           81.8          85.51          95.64          46.42
    0.7404              -22.91         0.9814           53.5           38.1          2.166           19.2          173.4          81.75          85.37          95.62          46.43
    0.7741              -22.92         0.9912          53.53           38.1           2.16          19.17          173.1          81.69          85.21          95.59          46.43
    0.8077              -22.93          1.002          53.55           38.1          2.153          19.14          172.8          81.63          85.03          95.56          46.44
    0.8414              -22.94          1.014          53.58          38.09          2.145           19.1          172.4          81.57          84.83          95.53          46.45
     0.875              -22.95          1.028          53.61          38.09          2.136          19.06          172.1          81.49           84.6           95.5          46.45
    0.9087              -22.97          1.044          53.65          38.08          2.126          19.02          171.6           81.4          84.35          95.46          46.46
    0.9423              -22.98          1.061          53.69          38.08          2.115          18.97          171.1          81.31          84.07          95.42          46.47
     0.976               -23.0          1.081          53.74          38.07          2.102          18.91          170.6           81.2          83.75          95.37          46.48
      1.01              -23.02          1.103          53.79          38.06          2.088          18.84          170.0          81.07          83.38          95.31           46.5
     1.043              -23.05          1.129          53.85          38.05          2.071          18.77          169.2          80.93          82.95          95.25          46.51
